# xmcd
#
# Track frame offsets: 
#        150
#        31635
#        55390
#        64686
#        88223
#        101811
#        126393
#        149230
#
# Disc length: 2189 seconds
#
# Revision: 0
# Processed by: cddbd v1.5.2PL0 Copyright (c) Steve Scherf et al.
# Submitted via: ExactAudioCopy v1.0b4
#
DISCID=79088b08
DTITLE=Lightnin' Hopkins - Early In The Morning (LP)
DYEAR=1900
DGENRE=Blues
TTITLE0=Big Black Cadillac Blues
TTITLE1=Early In The Mornin' Blues
TTITLE2=Coffee House Blues
TTITLE3=I've Been Buked And Scorned
TTITLE4=Stool Pidgeon Blues
TTITLE5=Brand New Car
TTITLE6=Drinkin' In The Blues
TTITLE7=Ball Of Twine
EXTD=
EXTT0=
EXTT1=
EXTT2=
EXTT3=
EXTT4=
EXTT5=
EXTT6=
EXTT7=
PLAYORDER=
